<?xml version="1.0" standalone="no"?><!DOCTYPE svg PUBLIC "-//W3C//DTD SVG 1.1//EN" "http://www.w3.org/Graphics/SVG/1.1/DTD/svg11.dtd"><svg t="1663991044108" class="icon" viewBox="0 0 1024 1024" version="1.1" xmlns="http://www.w3.org/2000/svg" p-id="1765" xmlns:xlink="http://www.w3.org/1999/xlink" width="128" height="128"><path d="M359.5776 470.8864l326.5536-8.4992c28.3648-0.7168 78.7456 14.1824 69.376 45.1584l-154.3168 430.4384c-23.0912 76.7488-111.2064 78.336-137.472 2.5088l-140.4416-405.4016c-10.496-30.464 8.192-63.488 36.3008-64.2048z" fill="#FDCFA5" p-id="1766"></path><path d="M348.0576 460.1344l214.6304 2.0992c3.6864-11.3152 5.7344-23.296 5.888-35.7888 0.6656-66.9696-54.4768-121.856-123.136-122.5216-68.6592-0.6656-124.8256 53.0944-125.4912 120.064-0.1536 14.5408 2.3552 28.5184 7.0144 41.472 6.144-3.3792 13.312-5.4272 21.0944-5.3248z" fill="#EDC951" p-id="1767"></path><path d="M627.5072 286.9248c-33.6896 0-64.1536 13.3632-86.3744 35.0208 34.9696 21.3504 58.2656 59.5456 58.2656 103.1168 0 12.4928-1.8944 24.5248-5.4784 35.84h121.7536c7.3216 0 14.0288 1.8432 19.8144 4.9664a119.5008 119.5008 0 0 0 14.7968-57.7024c0.1024-66.9184-54.9376-121.2416-122.7776-121.2416z" fill="#E56A77" p-id="1768"></path><path d="M782.336 149.76c-12.032-8.4992-25.856-2.4576-32.8192 12.2368l-70.8608 117.1456c16.128 7.168 20.0704 7.4752 31.8976 22.1184l69.5808-115.968c6.9632-14.6944 14.2336-27.0336 2.2016-35.5328z" fill="#FBC07C" p-id="1769"></path><path d="M610.2528 266.0352c13.568 0 26.624 2.0992 38.8608 5.9392-9.6256-55.8592-60.6208-98.4576-122.112-98.4576-68.352 0-123.7504 52.6848-123.7504 117.6576 0 1.1776 0.0512 2.304 0.1024 3.4816 16.5376-7.7824 35.1232-12.1856 54.8352-12.1856 23.8592 0 46.1312 6.4512 65.024 17.5616 22.3744-20.992 53.0944-33.9968 87.04-33.9968z" fill="#84DDFD" p-id="1770"></path><path d="M658.3296 48.0768c-11.52-1.536-22.1696 10.24-24.8832 26.0096L614.4 185.2416c15.36 17.7152 26.4192 41.9328 31.4368 69.5808 0.256 1.3824 1.6896 1.3312 1.9456-0.1024l29.1328-170.1888c3.0208-17.664-5.376-34.6624-18.5856-36.4544z" fill="#FBC07C" p-id="1771"></path><path d="M801.28 150.9376c-3.2768-12.2368-11.3152-22.3744-22.7328-28.5696-22.5792-12.3392-51.6608-4.864-64.8192 16.7424l-48.4352 79.4112 22.3744-143.7696c1.9456-12.4928-1.5872-25.3952-9.6768-35.328-8.5504-10.496-21.4016-16.896-35.328-17.5616-24.2688-1.28-46.08 16.5888-49.8176 40.4992l-13.9264 89.5488c-22.6304-11.2128-48.384-17.5104-75.52-17.5104-88.0128 0-159.9488 66.7648-162.8672 149.8624-49.1008 26.7776-82.2272 77.056-82.2272 134.6048 0 14.1824 2.048 28.16 5.9904 41.728-4.2496 3.6352-8.0384 7.7312-11.2128 12.4416-11.4688 16.7936-13.8752 37.2224-6.5536 56.0128l159.488 409.7536c16.128 41.472 53.8112 67.4304 98.304 67.6864h0.768c44.1856 0 81.8176-25.3952 98.4064-66.4064l165.888-410.2656c7.6288-18.8928 5.4272-39.424-5.9904-56.4224a65.8944 65.8944 0 0 0-11.0592-12.4416c8.7552-19.3024 13.4144-40.2944 13.4144-61.4912 0-38.144-14.592-73.1136-38.7072-100.1472l69.1712-113.408c6.4512-10.7008 8.2944-23.0912 5.0688-34.9696zM623.2576 67.072c1.3312-8.5504 9.4208-14.848 17.9712-14.5408 5.2224 0.256 9.9328 2.56 13.0048 6.2976 2.6624 3.2256 3.7888 7.2192 3.1744 11.1616l-20.2752 130.4064a156.54912 156.54912 0 0 0-29.7984-30.6688l15.9232-102.656zM372.6336 270.848c9.6256-59.7504 64.6144-105.728 130.816-105.728 27.0336 0 52.2752 7.6288 73.3696 20.7872l5.0688 3.5328c20.736 14.3872 36.2496 33.9456 45.2608 56.576-3.5328-0.512-7.1168-0.8704-10.752-1.1776-0.8192-0.0512-1.6896-0.1536-2.5088-0.2048-3.6864-0.256-7.424-0.4096-11.1616-0.4096-2.56 0-5.1712 0.0512-7.68 0.1536l-2.4576 0.1536c-1.7408 0.1024-3.4304 0.2048-5.1712 0.3584l-2.9696 0.3072c-1.536 0.1536-3.072 0.3072-4.608 0.512l-3.1232 0.4608c-1.4848 0.2048-2.9696 0.4608-4.4032 0.7168l-3.1232 0.6144c-1.4336 0.3072-2.8672 0.5632-4.3008 0.9216-1.024 0.256-2.048 0.4608-3.072 0.7168-1.4336 0.3584-2.8672 0.7168-4.3008 1.1264-0.9728 0.256-1.9968 0.5632-2.9696 0.8192-1.4336 0.4096-2.8672 0.8704-4.3008 1.3312-0.9216 0.3072-1.8944 0.6144-2.816 0.9216-1.4848 0.512-2.9696 1.0752-4.4544 1.5872-0.8704 0.3072-1.7408 0.6144-2.56 0.9728-1.6384 0.6144-3.2256 1.3312-4.8128 1.9968-0.6656 0.3072-1.3824 0.5632-2.048 0.8704-2.1504 0.9728-4.3008 1.9968-6.4 3.0208l-0.3072 0.1536c-2.2528 1.1264-4.5056 2.304-6.7072 3.584-0.4608 0.256-0.8704 0.512-1.3312 0.768-1.6896 0.9728-3.4304 1.9968-5.0688 3.0208-0.6656 0.4096-1.3824 0.8704-2.048 1.3312-1.4336 0.9216-2.816 1.8432-4.1984 2.7648-0.768 0.512-1.4848 1.0752-2.2528 1.5872-1.28 0.9216-2.56 1.8432-3.84 2.816-0.768 0.6144-1.536 1.1776-2.304 1.792-0.7168 0.5632-1.4336 1.0752-2.1504 1.6384-0.6144-0.3072-1.28-0.5632-1.8944-0.8704-1.792-0.8704-3.6352-1.6896-5.4272-2.5088-0.9216-0.4096-1.8432-0.8192-2.7648-1.1776-2.0992-0.8704-4.1984-1.6896-6.3488-2.5088-0.6656-0.256-1.28-0.512-1.9456-0.7168-5.7856-2.048-11.6736-3.7888-17.7152-5.2224-0.512-0.1024-1.0752-0.256-1.6384-0.3584-2.4064-0.5632-4.864-1.0752-7.3216-1.4848-0.8192-0.1536-1.6384-0.256-2.4576-0.4096-2.2016-0.3584-4.4544-0.6656-6.656-0.9728-0.9216-0.1024-1.8432-0.256-2.7136-0.3072-2.2528-0.256-4.5056-0.4096-6.7584-0.5632-0.8704-0.0512-1.6896-0.1536-2.56-0.2048a155.53024 155.53024 0 0 0-20.224 0.1536c-1.0752 0.0512-2.0992 0.1536-3.1232 0.2048-3.1232 0.256-6.1952 0.5632-9.2672 1.024-0.9728 0.1536-1.8944 0.256-2.816 0.4096a160.94208 160.94208 0 0 0-12.544 2.4576c-2.8672 0.6656-5.6832 1.3824-8.448 2.2016-0.7168 0.2048-1.2288 0.3072-1.6896 0.4608zM292.3008 446.5664c-2.2016-9.0112-3.2768-18.2784-3.2768-27.648 0-49.0496 30.3616-91.5456 74.3424-111.7696 1.2288-0.5632 2.4576-1.0752 3.6864-1.6384 0.9216-0.4096 1.792-0.8192 2.7648-1.1776 1.9968-0.8192 4.0448-1.536 6.0928-2.2528 1.3312-0.4608 2.6624-0.8704 3.9936-1.28 0.8704-0.256 1.6896-0.5632 2.56-0.8192 1.3824-0.4096 2.816-0.768 4.1984-1.1264 0.8192-0.2048 1.6384-0.4096 2.5088-0.6144 1.3824-0.3072 2.816-0.6144 4.2496-0.9216 0.8704-0.2048 1.792-0.3584 2.6624-0.512 1.3824-0.256 2.7136-0.4608 4.096-0.7168 1.024-0.1536 2.048-0.3072 3.072-0.4096l3.7888-0.4608c1.3312-0.1536 2.6624-0.2048 3.9936-0.3072 1.024-0.0512 2.048-0.1536 3.072-0.2048 2.4064-0.1024 4.8128-0.2048 7.2192-0.2048 2.816 0 5.5808 0.1024 8.3456 0.256l2.1504 0.1536c2.2528 0.1536 4.5568 0.4096 6.8096 0.6656 0.512 0.0512 1.0752 0.1024 1.5872 0.2048 2.816 0.4096 5.632 0.8192 8.448 1.3824 0.1536 0.0512 0.256 0.0512 0.4096 0.1024 2.6624 0.512 5.2736 1.1776 7.8336 1.8432 0.4608 0.1024 0.9728 0.256 1.4336 0.3584 5.4272 1.4848 10.752 3.328 15.9744 5.4272 0.512 0.2048 0.9728 0.4096 1.4848 0.6144 2.2016 0.9216 4.352 1.9456 6.5024 2.9696 0.4096 0.2048 0.8192 0.4096 1.28 0.6144 2.4064 1.2288 4.8128 2.5088 7.168 3.8912 0.9728 0.5632 1.9456 1.1776 2.9184 1.7408 0.9216 0.5632 1.792 1.1264 2.6624 1.6896 1.28 0.8192 2.56 1.6896 3.7888 2.56 0.4096 0.3072 0.8704 0.6144 1.28 0.9216 24.576 17.6128 42.3936 43.0592 49.2032 72.3456 0.1536 0.5632 0.3072 1.1776 0.4096 1.7408 0.256 1.1776 0.4608 2.3552 0.6656 3.584 0.2048 1.2288 0.4608 2.5088 0.6656 3.7376 0.1536 1.024 0.3072 2.048 0.4096 3.1232 0.2048 1.536 0.3584 3.072 0.4608 4.608 0.0512 0.8192 0.1536 1.6896 0.2048 2.5088 0.1536 2.4064 0.256 4.864 0.256 7.3216 0 2.7648-0.1536 5.5296-0.3072 8.2944-0.0512 0.768-0.1024 1.536-0.2048 2.2528-0.2048 2.2528-0.4608 4.5056-0.8192 6.7072-0.1024 0.5632-0.1536 1.0752-0.2048 1.6384-0.3584 2.3552-0.8704 4.7104-1.3824 7.0144h-243.2c-2.6112 0-5.2224 0.1536-7.8336 0.4608-1.4848 0.1536-2.9184 0.512-4.4032 0.768-1.024 0.2048-2.048 0.3072-3.0208 0.5632z m448.6144 71.68l-165.888 410.2656c-14.08 34.816-45.312 47.2064-69.9904 47.2064h-0.4608c-24.7808-0.1536-56.1664-12.9024-69.888-48.128l-159.488-409.7536c-3.584-9.216-2.4064-19.2512 3.2768-27.5456 2.9696-4.3008 6.912-7.7824 11.52-10.2912a38.4768 38.4768 0 0 1 4.2496-1.9968c1.1264-0.4608 2.2528-0.768 3.3792-1.1264l1.024-0.3072c0.9728-0.256 1.9968-0.4096 2.9696-0.5632 0.4608-0.1024 0.9728-0.2048 1.4336-0.256 1.4848-0.1536 2.9696-0.256 4.5056-0.256h401.3056c11.9296 0 22.8352 5.5808 29.184 14.9504 5.5296 8.448 6.6048 18.5856 2.8672 27.8016z m-15.872-71.4752c-5.2736-1.28-10.7008-1.9456-16.2816-1.9456h-126.72l0.1536-1.2288c0.4608-2.7648 0.768-5.5296 1.0752-8.2944 0.1536-1.3312 0.3584-2.6624 0.4608-3.9936 0.3584-4.1472 0.5632-8.2432 0.5632-12.4416 0-2.816-0.1024-5.5808-0.256-8.3456-0.0512-1.2288-0.2048-2.4576-0.3072-3.6352-0.1024-1.4848-0.2048-2.9696-0.4096-4.4544-0.2048-1.6896-0.4096-3.328-0.6656-4.9664-0.1536-0.9216-0.256-1.8944-0.4096-2.816-0.3072-1.9968-0.7168-4.0448-1.1264-6.0416l-0.3072-1.4336c-7.4752-34.6624-27.136-65.6896-56.2176-88.2688 0.1536-0.1024 0.256-0.2048 0.4096-0.256 2.4064-1.6384 4.864-3.1744 7.3728-4.6592 0.4608-0.256 0.9216-0.5632 1.3824-0.8192 2.6112-1.4848 5.2736-2.9184 7.936-4.2496 0.4608-0.256 0.9728-0.4608 1.4848-0.7168 2.6624-1.28 5.3248-2.4576 8.0896-3.5328 0.1536-0.0512 0.3584-0.1536 0.512-0.2048 2.816-1.1264 5.7344-2.0992 8.6528-3.0208 0.6144-0.2048 1.1776-0.3584 1.792-0.5632 2.9184-0.8704 5.8368-1.6384 8.8064-2.3552 0.4096-0.1024 0.768-0.1536 1.1776-0.256 2.7648-0.6144 5.5296-1.1264 8.3456-1.5872 0.512-0.1024 1.024-0.1536 1.536-0.256 3.0208-0.4608 6.0416-0.768 9.0624-1.024l1.9456-0.1536c3.1232-0.2048 6.2976-0.3584 9.472-0.3584 3.2256 0 6.4 0.1536 9.5744 0.3584l1.8944 0.1536c3.1744 0.256 6.3488 0.6144 9.5232 1.0752 0.2048 0.0512 0.3584 0.0512 0.5632 0.1024 3.2256 0.512 6.4512 1.1264 9.6768 1.8432 0.1536 0.0512 0.3584 0.0512 0.512 0.1024 3.2256 0.768 6.4512 1.6384 9.6256 2.6112 4.9152 1.536 9.6768 3.328 14.336 5.3248 0.6656 0.3072 1.3312 0.5632 1.9968 0.8704 1.2288 0.5632 2.4576 1.1776 3.6352 1.7408 0.8192 0.4096 1.6896 0.8192 2.5088 1.28 1.1264 0.5632 2.2016 1.1776 3.328 1.792 0.8704 0.512 1.792 1.024 2.6624 1.536 1.0752 0.6144 2.0992 1.2288 3.1232 1.8944 0.8192 0.512 1.6896 1.0752 2.5088 1.5872 1.0752 0.7168 2.1504 1.3824 3.1744 2.1504 0.6144 0.4608 1.28 0.9216 1.8944 1.3824 31.4368 22.784 51.712 58.4704 51.712 98.56 0.2048 16.384-3.2256 32.5632-9.7792 47.5136z m44.9536-276.9408l-65.9456 108.0832c-1.0752-0.8192-2.2016-1.5872-3.2768-2.3552-0.3584-0.256-0.6656-0.512-1.024-0.7168-1.6896-1.1776-3.4304-2.3552-5.1712-3.4816-0.5632-0.3584-1.0752-0.7168-1.6384-1.024-1.6384-1.024-3.2768-2.048-4.9664-3.0208-0.6656-0.4096-1.3312-0.768-1.9968-1.1264-1.6384-0.9216-3.2768-1.8432-4.9152-2.7136-0.7168-0.3584-1.3824-0.7168-2.0992-1.0752-1.1264-0.5632-2.2528-1.1776-3.3792-1.7408l64.4096-105.5744c4.6592-7.6288 15.616-10.2912 23.8592-5.7856 3.9424 2.1504 6.7072 5.5296 7.7824 9.5744 0.9728 3.6864 0.4096 7.5776-1.6384 10.9568z" fill="#333333" p-id="1772"></path></svg>