<?xml version="1.0" standalone="no"?><!DOCTYPE svg PUBLIC "-//W3C//DTD SVG 1.1//EN" "http://www.w3.org/Graphics/SVG/1.1/DTD/svg11.dtd"><svg t="1663991050554" class="icon" viewBox="0 0 1024 1024" version="1.1" xmlns="http://www.w3.org/2000/svg" p-id="1943" xmlns:xlink="http://www.w3.org/1999/xlink" width="128" height="128"><path d="M815.0528 440.4224H260.5056c-6.2976 0-11.3664-5.0688-11.3664-11.3664v-30.1056c0-6.2976 5.0688-11.3664 11.3664-11.3664h554.5472c6.2976 0 11.3664 5.0688 11.3664 11.3664v30.1056c0 6.2464-5.0688 11.3664-11.3664 11.3664z" fill="#8B71B5" p-id="1944"></path><path d="M800.9216 352.8704v-27.0336c0-5.632-4.5568-10.1376-10.1376-10.1376H284.6208c-5.632 0-10.1376 4.5568-10.1376 10.1376v27.0336c0 5.632 4.5568 10.1376 10.1376 10.1376h506.1632c5.5808 0 10.1376-4.5056 10.1376-10.1376z" fill="#FFC533" p-id="1945"></path><path d="M316.1088 485.632c-4.2496 0-7.5264 3.6864-7.0144 7.8848l50.688 445.0304c2.5088 21.8112 20.8896 38.2976 42.8032 38.2976h280.8832c21.9136 0 40.2944-16.4864 42.8032-38.2976l51.6096-452.9152H316.1088z" fill="#A2EFFC" p-id="1946"></path><path d="M329.1648 669.5424l30.6688 283.3408c2.5088 13.6704 20.8896 23.9616 42.8032 23.9616h280.8832c21.9136 0 40.2944-10.2912 42.8032-23.9616l27.6992-283.3408H329.1648z" fill="#4BBFFF" p-id="1947"></path><path d="M636.9792 56.32l55.04 16.7936-51.968 206.7456-60.2112-4.4032z" fill="#FBA3B2" p-id="1948"></path><path d="M826.4192 343.5008h-12.9024V279.8592c0-8.4992-6.8608-15.36-15.36-15.36h-138.4448l47.1552-187.5968c1.9968-7.936-2.56-16.0256-10.3936-18.432L603.8528 30.208c-4.0448-1.2288-8.448-0.768-12.0832 1.3824-3.6864 2.0992-6.2976 5.632-7.3216 9.728l-53.6576 223.1808H228.864c-8.4992 0-15.36 6.8608-15.36 15.36v63.6416h-12.9024c-8.4992 0-15.36 6.8608-15.36 15.36v81.5616c0 8.4992 6.8608 15.36 15.36 15.36h34.8672l56.5248 481.024c3.6864 31.5904 30.976 55.3984 63.4368 55.3984h316.2112c32.4608 0 59.6992-23.808 63.4368-55.3984l56.5248-481.024h34.8672c8.4992 0 15.36-6.8608 15.36-15.36V358.8608a15.4112 15.4112 0 0 0-15.4112-15.36z m-215.9104-279.1936l63.0272 19.2-45.4656 180.9408h-65.6896l48.128-200.1408zM244.224 295.2192h538.624v48.2816H244.224v-48.2816z m460.3392 638.0032c-1.8944 16.128-16.0256 28.2624-32.9216 28.2624H355.4304c-16.8448 0-31.0272-12.1344-32.9216-28.2624L266.4448 455.7824h494.1824l-56.064 477.44z m106.496-508.16H215.9616v-50.8416h595.1488v50.8416z" fill="#333333" p-id="1949"></path><path d="M664.4224 700.416c-23.0912 0-46.592-6.3488-61.8496-19.0976-19.0976-16.0256-55.0912-12.7488-74.496 0.8192-28.3648 19.8656-69.4784 19.968-99.9936 0.3072-42.1376-26.8288-85.5552-0.1536-86.016 0.1024a15.37536 15.37536 0 1 1-16.3328-26.0608c2.4576-1.536 60.4672-37.12 118.8864 0.0512 20.3776 13.1072 47.4112 13.2608 65.8432 0.3584 29.184-20.4288 81.1008-24.9856 111.872 0.8192 19.6096 16.4352 66.816 14.7456 80.5888 0.9216a15.36 15.36 0 0 1 21.7088-0.0512 15.36 15.36 0 0 1 0.0512 21.7088c-13.312 13.4144-36.5568 20.1216-60.2624 20.1216z" fill="#333333" p-id="1950"></path></svg>